<svg width="1000" height="1000" viewBox="0 0 1000 1000" fill="none" xmlns="http://www.w3.org/2000/svg">
    <path d="M500 1000C719.101 1000 840.901 1000 920.45 920.45C1000 840.901 1000 719.174 1000 500C1000 280.826 1000 159.099 920.45 79.5496C840.901 0 719.101 0 500 0C280.899 0 159.099 0 79.5496 79.5496C0 159.099 0 280.899 0 500C0 719.101 0 840.901 79.5496 920.45C159.099 1000 280.899 1000 500 1000Z" fill="black"/>
    <path d="M687.788 401.139C650.017 401.139 621.983 430.297 621.983 466.273C621.983 495.648 642.637 518.568 668.784 525.35L615.183 607.457H665.248L710.817 531.044H744.925V607.457H786.722V401.139H687.788ZM693.536 496.138C676.346 496.138 665.702 482.647 665.702 467.27C665.702 451.893 675.457 437.242 693.536 437.242H744.979V496.138H693.536Z" fill="white"/>
    <path d="M458.891 401.139L445.019 439.327L501.939 439.001L468.229 562.632C458.619 598.68 496.19 625.916 528.25 604.718L601.163 555.252L579.693 523.7L506.871 574.146L555.957 401.139H458.891Z" fill="white"/>
    <path d="M537.391 374.611C553.365 374.611 566.314 362.944 566.314 348.553C566.314 334.162 553.365 322.496 537.391 322.496C521.418 322.496 508.469 334.162 508.469 348.553C508.469 362.944 521.418 374.611 537.391 374.611Z" fill="white"/>
    <path d="M389.86 569.374V353.192H229.473V468.572C229.473 522.863 213.752 556.427 204.486 569.283H185.483V663.575H226.155V607.834H378.219V663.666H418.873V569.374H389.86ZM269.91 466.197V391.543H348.154V569.247H247.153C256.31 554.269 269.91 516.154 269.91 466.197Z" fill="white"/>
</svg>