<svg width="800" height="800" viewBox="0 0 800 800" fill="none" xmlns="http://www.w3.org/2000/svg">
<rect x="202" y="167" width="395" height="223" fill="white"/>
<rect x="161" y="224" width="477" height="322" fill="white"/>
<path d="M630.667 167.001C624 147.334 605.333 133.334 583.333 133.334H216.667C194.667 133.334 176.333 147.334 169.333 167.001L100 366.667V633.334C100 651.667 115 666.667 133.333 666.667H166.667C185 666.667 200 651.667 200 633.334V600.001H600V633.334C600 651.667 615 666.667 633.333 666.667H666.667C685 666.667 700 651.667 700 633.334V366.667L630.667 167.001ZM216.667 500.001C189 500.001 166.667 477.667 166.667 450.001C166.667 422.334 189 400.001 216.667 400.001C244.333 400.001 266.667 422.334 266.667 450.001C266.667 477.667 244.333 500.001 216.667 500.001ZM583.333 500.001C555.667 500.001 533.333 477.667 533.333 450.001C533.333 422.334 555.667 400.001 583.333 400.001C611 400.001 633.333 422.334 633.333 450.001C633.333 477.667 611 500.001 583.333 500.001ZM166.667 333.334L216.667 183.334H583.333L633.333 333.334H166.667Z" fill="black"/>
</svg>
