<svg width="800" height="800" viewBox="0 0 800 800" fill="none" xmlns="http://www.w3.org/2000/svg">
<rect x="202" y="166" width="395" height="223" fill="white"/>
<rect x="161" y="223" width="477" height="322" fill="white"/>
<path d="M630.667 166.667C624 147 605.333 133 583.333 133H216.667C194.667 133 176.333 147 169.333 166.667L100 366.333V633C100 651.333 115 666.333 133.333 666.333H166.667C185 666.333 200 651.333 200 633V599.667H600V633C600 651.333 615 666.333 633.333 666.333H666.667C685 666.333 700 651.333 700 633V366.333L630.667 166.667ZM216.667 499.667C189 499.667 166.667 477.333 166.667 449.667C166.667 422 189 399.667 216.667 399.667C244.333 399.667 266.667 422 266.667 449.667C266.667 477.333 244.333 499.667 216.667 499.667ZM583.333 499.667C555.667 499.667 533.333 477.333 533.333 449.667C533.333 422 555.667 399.667 583.333 399.667C611 399.667 633.333 422 633.333 449.667C633.333 477.333 611 499.667 583.333 499.667ZM166.667 333L216.667 183H583.333L633.333 333H166.667Z" fill="#FF2600" stroke="white" stroke-width="0.008"/>
</svg>
