<svg width="800" height="800" viewBox="0 0 800 800" fill="none" xmlns="http://www.w3.org/2000/svg">
<rect x="260.967" y="115" width="279.067" height="223" fill="white"/>
<rect x="232" y="172" width="337" height="322" fill="white"/>
<path d="M400 735.501C244.433 532.501 166.667 388.067 166.667 302.167C166.667 240.283 191.25 180.934 235.008 137.176C278.767 93.4172 338.116 68.834 400 68.834C461.884 68.834 521.233 93.4172 564.992 137.176C608.75 180.934 633.333 240.283 633.333 302.167C633.333 388.067 555.567 532.501 400 735.501ZM400 435.501C435.362 435.501 469.276 421.453 494.281 396.448C519.286 371.443 533.333 337.53 533.333 302.167C533.333 266.805 519.286 232.891 494.281 207.886C469.276 182.882 435.362 168.834 400 168.834C364.638 168.834 330.724 182.882 305.719 207.886C280.714 232.891 266.667 266.805 266.667 302.167C266.667 337.53 280.714 371.443 305.719 396.448C330.724 421.453 364.638 435.501 400 435.501Z" fill="#FF2600" stroke="#FF2600" stroke-width="33.3333"/>
</svg>
